<svg width="34" height="34" viewBox="0 0 34 34" fill="none" xmlns="http://www.w3.org/2000/svg">
<rect width="34" height="34" rx="10" fill="#0E2B73"/>
<path d="M7.75854 23.567V10.1385C7.75854 10.0472 7.79672 9.99496 7.88578 9.99496C8.10209 9.99496 8.30567 9.99496 8.59831 9.98191C8.90368 9.96886 9.22178 9.96886 9.56532 9.95581C9.90886 9.94276 10.2779 9.94276 10.6723 9.92971C11.0667 9.91666 11.4484 9.91666 11.8301 9.91666C12.8735 9.91666 13.7387 10.0472 14.4512 10.3212C15.0874 10.5431 15.6727 10.9085 16.1562 11.3913C16.5634 11.8089 16.8815 12.3179 17.0851 12.879C17.2759 13.4271 17.3777 13.9883 17.3777 14.5755C17.3777 15.6978 17.1232 16.6244 16.6143 17.3552C16.1053 18.086 15.3928 18.6341 14.5658 18.9473C13.7005 19.2735 12.7463 19.391 11.7029 19.391C11.3975 19.391 11.194 19.391 11.0667 19.3779C10.9395 19.3649 10.7614 19.3649 10.5196 19.3649V23.5539C10.5323 23.6453 10.4687 23.7236 10.3796 23.7366C10.3669 23.7366 10.3542 23.7366 10.3287 23.7366H7.91123C7.80944 23.7366 7.75854 23.6844 7.75854 23.567ZM10.5323 12.5136V16.8984C10.7105 16.9115 10.8759 16.9245 11.0286 16.9245H11.7029C12.1991 16.9245 12.6954 16.8462 13.1661 16.6896C13.5733 16.5722 13.9296 16.3242 14.2095 15.998C14.4767 15.6717 14.6039 15.228 14.6039 14.6538C14.6167 14.2493 14.5149 13.8447 14.3113 13.4924C14.095 13.1531 13.7896 12.8921 13.4206 12.7485C12.9498 12.5528 12.4409 12.4745 11.9192 12.4875C11.5884 12.4875 11.2958 12.4875 11.054 12.5006C10.7995 12.4875 10.6214 12.5006 10.5323 12.5136Z" fill="#17B6E8"/>
<path d="M25.3176 16.1024C24.9359 15.8936 24.5287 15.75 24.0961 15.6587C23.6253 15.5543 23.1546 15.489 22.6711 15.489C22.4166 15.476 22.1494 15.5151 21.9076 15.5804C21.7422 15.6195 21.6023 15.7109 21.5132 15.8414C21.4496 15.9458 21.4114 16.0763 21.4114 16.1937C21.4114 16.3112 21.4623 16.4286 21.5386 16.533C21.6532 16.6766 21.8058 16.794 21.9712 16.8854C22.2639 17.042 22.5693 17.1855 22.8746 17.316C23.5617 17.5509 24.2234 17.8772 24.8341 18.2687C25.254 18.5427 25.5975 18.9081 25.8393 19.3518C26.0429 19.7694 26.1446 20.2262 26.1319 20.696C26.1446 21.3093 25.9665 21.9227 25.6357 22.4316C25.2794 22.9536 24.7832 23.3582 24.2106 23.5931C23.5872 23.8671 22.8237 24.0107 21.9076 24.0107C21.3223 24.0107 20.7498 23.9585 20.1772 23.841C19.7319 23.7627 19.2865 23.6192 18.8794 23.4234C18.7903 23.3712 18.7267 23.2799 18.7394 23.1755V20.9048C18.7394 20.8656 18.7521 20.8134 18.7903 20.7873C18.8285 20.7612 18.8667 20.7743 18.9048 20.8004C19.4011 21.1005 19.9227 21.3093 20.4826 21.4398C20.9661 21.5703 21.475 21.6356 21.984 21.6356C22.4675 21.6356 22.811 21.5703 23.04 21.4529C23.2436 21.3615 23.3836 21.1397 23.3836 20.9048C23.3836 20.7221 23.2818 20.5524 23.0782 20.3828C22.8746 20.2131 22.4548 20.0174 21.8313 19.7694C21.1824 19.5345 20.5844 19.2213 20.0245 18.8298C19.6301 18.5427 19.2993 18.1643 19.0575 17.7206C18.8539 17.303 18.7521 16.8462 18.7649 16.3895C18.7649 15.8283 18.9175 15.2933 19.1975 14.8104C19.5156 14.2884 19.9863 13.8708 20.5335 13.6098C21.1315 13.2966 21.8822 13.1531 22.7856 13.1531C23.3072 13.1531 23.8416 13.1922 24.3633 13.2705C24.745 13.3227 25.114 13.4271 25.4576 13.5707C25.5085 13.5837 25.5594 13.6359 25.5848 13.6881C25.5975 13.7403 25.6102 13.7925 25.6102 13.8447V15.9719C25.6102 16.0241 25.5848 16.0763 25.5466 16.1024C25.4321 16.1285 25.3685 16.1285 25.3176 16.1024Z" fill="#17B6E8"/>
</svg>
