<svg width="34" height="34" viewBox="0 0 34 34" fill="none" xmlns="http://www.w3.org/2000/svg">
<path d="M2.03572 16.4582C5.04054 23.361 12.6651 24.5186 21.7649 18.6677C25.962 22.5523 27.0076 27.1576 23.5055 31.7933C21.6584 32.5702 19.6295 32.9998 17.5 32.9998C8.93963 32.9998 2 26.0603 2 17.4999C2 17.1498 2.01284 16.8026 2.03572 16.4582ZM16.2107 13.4618C17.5676 7.80735 21.3565 4.56399 27.3124 5.50149C30.7841 8.34404 33 12.663 33 17.4999C33 23.6024 29.4729 28.8802 24.3467 31.4084C29.0034 24.7744 25.1979 17.7752 16.2107 13.4618ZM17.5 2C20.8222 2 23.9 3.04564 26.4231 4.82511C17.9524 3.84038 13.9524 10.901 14.5111 20.6513C9.00715 22.3395 4.5233 21.0956 2.15374 15.3175C3.21464 7.79057 9.68055 2 17.5 2Z" fill="#662D91"/>
</svg>
