<svg width="34" height="34" viewBox="0 0 34 34" fill="none" xmlns="http://www.w3.org/2000/svg">
<path d="M9.58374 16.3349C9.58374 16.7535 9.62624 17.0935 9.70699 17.3442C9.79624 17.5929 9.91099 17.8649 10.0682 18.1602C10.1184 18.2383 10.1457 18.3288 10.1469 18.4216C10.1469 18.5342 10.0789 18.649 9.93436 18.7616L9.22036 19.2376C9.13466 19.2995 9.03272 19.3349 8.92711 19.3396C8.81236 19.3396 8.69974 19.2844 8.58711 19.1824C8.43438 19.018 8.29776 18.8394 8.17911 18.649C8.0527 18.431 7.93572 18.2077 7.82849 17.9796C6.94661 19.023 5.83949 19.5457 4.50499 19.5457C3.55511 19.5457 2.79649 19.2716 2.24399 18.7276C1.68936 18.1836 1.40674 17.4569 1.40674 16.5495C1.40674 15.5847 1.74674 14.8027 2.43524 14.212C3.12586 13.6212 4.04174 13.328 5.20624 13.328C5.58874 13.328 5.98611 13.362 6.40474 13.4172C6.82336 13.4746 7.25474 13.566 7.70524 13.668V12.8392C7.70524 11.9765 7.52461 11.3751 7.17399 11.0245C6.81274 10.6717 6.20074 10.5017 5.32949 10.5017C4.93424 10.5017 4.52836 10.5485 4.10974 10.6505C3.69382 10.7495 3.28549 10.878 2.88786 11.0351C2.75949 11.0932 2.62746 11.1429 2.49261 11.1839C2.43418 11.2032 2.37344 11.2146 2.31199 11.2179C2.15261 11.2179 2.07399 11.1031 2.07399 10.8651V10.3084C2.07399 10.1277 2.09524 9.98961 2.15261 9.91311C2.23824 9.80885 2.34752 9.72653 2.47136 9.67299C2.86449 9.46899 3.34049 9.29899 3.89511 9.16299C4.44761 9.01424 5.03624 8.94836 5.65886 8.94836C7.00399 8.94836 7.98786 9.25436 8.62111 9.86636C9.24374 10.4784 9.56036 11.4091 9.56036 12.6586V16.3349H9.58161H9.58374ZM4.99161 18.0582C5.36349 18.0582 5.74811 17.9902 6.15611 17.8542C6.56199 17.7182 6.92536 17.4675 7.22924 17.1275C7.41145 16.9187 7.54307 16.6708 7.61386 16.4029C7.68186 16.1287 7.72861 15.8015 7.72861 15.4147V14.9387C7.38539 14.8555 7.03776 14.7917 6.68736 14.7475C6.33501 14.7019 5.98015 14.6785 5.62486 14.6774C4.86624 14.6774 4.31161 14.8261 3.93974 15.1321C3.56574 15.4381 3.38724 15.8695 3.38724 16.4369C3.38724 16.9681 3.52111 17.3655 3.80374 17.6396C4.07574 17.9222 4.47099 18.0582 4.99161 18.0582ZM14.0717 19.2844C13.8677 19.2844 13.7317 19.2504 13.6425 19.1696C13.5511 19.1016 13.4725 18.9444 13.4045 18.7276L10.7482 9.95774C10.6958 9.81075 10.6609 9.65812 10.6441 9.50299C10.6441 9.32236 10.7355 9.22036 10.9161 9.22036H12.0254C12.2379 9.22036 12.3866 9.25436 12.4652 9.33299C12.5566 9.40099 12.6246 9.56036 12.6926 9.77499L14.5924 17.2869L16.3561 9.77499C16.4114 9.54974 16.4794 9.40099 16.5686 9.33299C16.705 9.24947 16.8638 9.21013 17.0234 9.22036H17.9265C18.1432 9.22036 18.2877 9.25436 18.3791 9.33299C18.4705 9.40099 18.5491 9.56036 18.5937 9.77499L20.3809 17.3782L22.3359 9.77499C22.3721 9.61046 22.4505 9.45816 22.5632 9.33299C22.6949 9.24954 22.8497 9.2101 23.0052 9.22036H24.0571C24.2377 9.22036 24.3397 9.31174 24.3397 9.50299C24.3397 9.56036 24.327 9.61774 24.3185 9.68574C24.3002 9.78221 24.2732 9.87681 24.2377 9.96836L21.5114 18.7382C21.4434 18.9656 21.3647 19.1144 21.2755 19.1824C21.1472 19.2644 20.9962 19.3039 20.8441 19.295H19.873C19.6584 19.295 19.5117 19.261 19.4204 19.1824C19.329 19.1016 19.2504 18.955 19.2057 18.7276L17.4526 11.4112L15.7101 18.7191C15.6549 18.9465 15.5869 19.0931 15.4976 19.1717C15.4062 19.2525 15.2469 19.2865 15.045 19.2865H14.0717V19.2844ZM28.6025 19.5904C28.0157 19.5911 27.4308 19.5227 26.86 19.3864C26.2947 19.2504 25.8549 19.1016 25.5595 18.9316C25.3789 18.8296 25.2556 18.717 25.2089 18.6129C25.1657 18.5129 25.1433 18.4052 25.143 18.2962V17.7182C25.143 17.4802 25.2322 17.3655 25.4022 17.3655C25.4716 17.3656 25.5405 17.3771 25.6062 17.3995C25.6742 17.4229 25.7762 17.4675 25.8889 17.5142C26.2714 17.6842 26.6921 17.8202 27.132 17.9116C27.5846 18.0009 28.0245 18.0476 28.4771 18.0476C29.1911 18.0476 29.7436 17.9222 30.1282 17.6736C30.313 17.5618 30.4648 17.4029 30.5682 17.2133C30.6716 17.0237 30.7229 16.81 30.7169 16.5941C30.7207 16.4483 30.6956 16.3033 30.6431 16.1672C30.5906 16.0312 30.5116 15.9069 30.4109 15.8015C30.209 15.5847 29.8244 15.3914 29.2697 15.2107L27.6292 14.7007C26.8047 14.4394 26.1927 14.0526 25.8209 13.5426C25.4568 13.0714 25.2582 12.4933 25.2556 11.8979C25.2556 11.4219 25.3576 11.0011 25.5595 10.6377C25.7635 10.2765 26.0355 9.95774 26.3755 9.70699C26.7155 9.44774 27.098 9.25436 27.5506 9.11836C28.0032 8.98236 28.4771 8.92499 28.9744 8.92499C29.2251 8.92499 29.4844 8.93561 29.733 8.96961C29.9922 9.00361 30.2302 9.05036 30.4682 9.09711C30.6935 9.15236 30.9102 9.20761 31.1121 9.27774C31.3161 9.34574 31.4734 9.41374 31.5881 9.48174C31.7215 9.54874 31.8379 9.64542 31.9281 9.76436C32.0009 9.875 32.0359 10.0062 32.028 10.1384V10.6717C32.028 10.9097 31.9387 11.0351 31.7687 11.0351C31.6182 11.0179 31.4724 10.9717 31.3395 10.8991C30.6562 10.5961 29.9151 10.4453 29.1677 10.4571C28.5239 10.4571 28.0139 10.5591 27.6632 10.7759C27.3126 10.9884 27.132 11.3199 27.132 11.7852C27.132 12.1019 27.2446 12.3739 27.472 12.5906C27.6972 12.8052 28.1159 13.0199 28.7151 13.2132L30.3216 13.7232C31.1355 13.9846 31.7241 14.348 32.0747 14.8134C32.4254 15.2787 32.5932 15.8121 32.5932 16.4029C32.5932 16.8916 32.4934 17.3315 32.3 17.7182C32.0998 18.1063 31.8186 18.4469 31.4755 18.717C31.1249 18.9996 30.7062 19.2057 30.2196 19.3524C29.7096 19.5117 29.1784 19.5904 28.6025 19.5904Z" fill="#252F3E"/>
<path fill-rule="evenodd" clip-rule="evenodd" d="M30.7382 25.1026C27.0195 27.8588 21.6135 29.3229 16.9661 29.3229C10.453 29.3229 4.58372 26.9068 0.150971 22.8905C-0.199654 22.5718 0.116971 22.1404 0.533471 22.3911C5.3296 25.1813 11.2435 26.8728 17.3635 26.8728C21.4881 26.8728 26.0228 26.01 30.1963 24.2399C30.819 23.9573 31.3502 24.6479 30.7382 25.1026Z" fill="#FF9900"/>
<path fill-rule="evenodd" clip-rule="evenodd" d="M32.2873 23.3325C31.8134 22.7226 29.1444 23.0393 27.9353 23.1859C27.574 23.2327 27.5167 22.9139 27.8439 22.6759C29.9689 21.1778 33.4645 21.6092 33.8704 22.1085C34.2784 22.6185 33.7578 26.1248 31.7667 27.8035C31.4628 28.0649 31.1695 27.931 31.3034 27.591C31.756 26.4648 32.7633 23.936 32.2873 23.3347V23.3325Z" fill="#FF9900"/>
</svg>
