<svg width="34" height="34" viewBox="0 0 34 34" fill="none" xmlns="http://www.w3.org/2000/svg">
<path d="M17.4984 32.9634C26.0394 32.9634 32.9633 26.0395 32.9633 17.4985C32.9633 8.95742 26.0394 2.03354 17.4984 2.03354C8.95733 2.03354 2.03345 8.95742 2.03345 17.4985C2.03345 26.0395 8.95733 32.9634 17.4984 32.9634Z" fill="#F5BB60"/>
<path d="M15.9218 29.8436C23.6106 29.8436 29.8436 23.6106 29.8436 15.9218C29.8436 8.23299 23.6106 2 15.9218 2C8.23299 2 2 8.23299 2 15.9218C2 23.6106 8.23299 29.8436 15.9218 29.8436Z" fill="#E86F32"/>
<path d="M17.7667 26.1535C24.4365 26.1535 29.8434 20.7465 29.8434 14.0767C29.8434 7.40693 24.4365 2 17.7667 2C11.0969 2 5.68994 7.40693 5.68994 14.0767C5.68994 20.7465 11.0969 26.1535 17.7667 26.1535Z" fill="#E53D42"/>
<path d="M18.7396 26.1534C24.8721 26.1534 29.8435 21.1821 29.8435 15.0496C29.8435 8.91705 24.8721 3.94568 18.7396 3.94568C12.6071 3.94568 7.63574 8.91705 7.63574 15.0496C7.63574 21.1821 12.6071 26.1534 18.7396 26.1534Z" fill="#BFD141"/>
<path d="M17.9345 26.1534C23.6224 26.1534 28.2333 21.5425 28.2333 15.8547C28.2333 10.1668 23.6224 5.55591 17.9345 5.55591C12.2467 5.55591 7.63574 10.1668 7.63574 15.8547C7.63574 21.5425 12.2467 26.1534 17.9345 26.1534Z" fill="#6DB64C"/>
<path d="M16.2907 22.8994C21.0707 22.8994 24.9457 19.0245 24.9457 14.2445C24.9457 9.46445 21.0707 5.58948 16.2907 5.58948C11.5107 5.58948 7.63574 9.46445 7.63574 14.2445C7.63574 19.0245 11.5107 22.8994 16.2907 22.8994Z" fill="#AFDBE7"/>
<path d="M17.6996 20.048C21.7015 20.048 24.9457 16.8038 24.9457 12.8019C24.9457 8.80007 21.7015 5.55591 17.6996 5.55591C13.6978 5.55591 10.4536 8.80007 10.4536 12.8019C10.4536 16.8038 13.6978 20.048 17.6996 20.048Z" fill="#57BADF"/>
<path d="M18.6055 20.0815C22.1257 20.0815 24.9793 17.2279 24.9793 13.7077C24.9793 10.1876 22.1257 7.33389 18.6055 7.33389C15.0853 7.33389 12.2317 10.1876 12.2317 13.7077C12.2317 17.2279 15.0853 20.0815 18.6055 20.0815Z" fill="#02B2D6"/>
<path d="M17.6662 20.048C20.6676 20.048 23.1007 17.6149 23.1007 14.6135C23.1007 11.612 20.6676 9.17892 17.6662 9.17892C14.6648 9.17892 12.2317 11.612 12.2317 14.6135C12.2317 17.6149 14.6648 20.048 17.6662 20.048Z" fill="url(#paint0_radial_252_1355)"/>
<path d="M17.6662 20.048C20.6676 20.048 23.1007 17.6149 23.1007 14.6135C23.1007 11.612 20.6676 9.17892 17.6662 9.17892C14.6648 9.17892 12.2317 11.612 12.2317 14.6135C12.2317 17.6149 14.6648 20.048 17.6662 20.048Z" fill="#231F20"/>
<path d="M19.0933 13.9013C19.6321 14.1431 20.3752 13.6566 20.7529 12.8147C21.1307 11.9728 21.0001 11.0943 20.4613 10.8525C19.9225 10.6107 19.1795 11.0973 18.8017 11.9392C18.4239 12.7811 18.5545 13.6596 19.0933 13.9013Z" fill="white"/>
<defs>
<radialGradient id="paint0_radial_252_1355" cx="0" cy="0" r="1" gradientUnits="userSpaceOnUse" gradientTransform="translate(557.214 552.665) scale(544.744)">
<stop stop-color="#797979"/>
<stop offset="1" stop-color="#4C4C4C"/>
</radialGradient>
</defs>
</svg>
