<svg width="65" height="65" viewBox="0 0 65 65" fill="none" xmlns="http://www.w3.org/2000/svg">
<path d="M27.3984 61C28.503 61 29.3984 60.1046 29.3984 59V53.8671C29.3984 51.8975 27.8016 50.3007 25.832 50.3007H11.5662C9.59658 50.3007 7.99977 51.8975 7.99977 53.8671V59C7.99977 60.1046 8.8952 61 9.99977 61H27.3984Z" stroke="#202020" stroke-miterlimit="10"/>
<path d="M24.0485 41.3846C24.0485 44.3392 21.6534 46.7343 18.6989 46.7343C15.7443 46.7343 13.3492 44.3392 13.3492 41.3846C13.3492 38.43 15.7443 36.0349 18.6989 36.0349C21.6534 36.0349 24.0485 38.43 24.0485 41.3846Z" fill="#106A61" stroke="#202020" stroke-miterlimit="10"/>
<path d="M56.3984 61C57.503 61 58.3984 60.1046 58.3984 59V53.8671C58.3984 51.8975 56.8016 50.3007 54.832 50.3007H40.5662C38.5966 50.3007 36.9998 51.8975 36.9998 53.8671V59C36.9998 60.1046 37.8952 61 38.9998 61H56.3984Z" stroke="#202020" stroke-miterlimit="10"/>
<path d="M52.58 41.3846C52.58 44.3392 50.1849 46.7343 47.2304 46.7343C44.2758 46.7343 41.8807 44.3392 41.8807 41.3846C41.8807 38.43 44.2758 36.0349 47.2304 36.0349C50.1849 36.0349 52.58 38.43 52.58 41.3846Z" fill="#F8A11D" stroke="#202020" stroke-miterlimit="10"/>
<path d="M44.6639 21.5314C44.1116 21.5314 43.6639 21.9791 43.6639 22.5314V25.3674C43.6639 26.2165 42.6723 26.6792 42.0215 26.1337L36.8098 21.7651C36.6297 21.6141 36.4023 21.5314 36.1674 21.5314H29.7616C29.5267 21.5314 29.2993 21.6141 29.1192 21.7651L23.9077 26.1337C23.2569 26.6792 22.2653 26.2165 22.2653 25.3673V22.5314C22.2653 21.9791 21.8176 21.5314 21.2653 21.5314H20.4821C15.5579 21.5314 11.566 17.5395 11.566 12.6153C11.566 7.69114 15.5579 3.69923 20.4821 3.69923H45.4471C50.3713 3.69923 54.3632 7.69114 54.3632 12.6153C54.3632 17.5395 50.3713 21.5314 45.4471 21.5314H44.6639Z" stroke="#202020" stroke-miterlimit="10"/>
<path d="M31.1814 12.6153H34.7478" stroke="#202020" stroke-miterlimit="10" stroke-linecap="round"/>
<path d="M24.0485 12.6153H27.615" stroke="#202020" stroke-miterlimit="10" stroke-linecap="round"/>
<path d="M38.3143 12.6153H41.8807" stroke="#202020" stroke-miterlimit="10" stroke-linecap="round"/>
<path d="M45 58H50" stroke="#202020" stroke-linecap="round" stroke-linejoin="round"/>
<path d="M16 58H21" stroke="#202020" stroke-linecap="round" stroke-linejoin="round"/>
</svg>
