<svg width="34" height="34" viewBox="0 0 34 34" fill="none" xmlns="http://www.w3.org/2000/svg">
<path d="M22.6116 10.8665L25.5671 7.91105L25.764 6.66659C20.3783 1.7694 11.8171 2.32469 6.96215 7.82525C5.61357 9.35299 4.6131 11.2577 4.07959 13.2245L5.13811 13.0753L11.0489 12.1006L11.5053 11.6339C14.1346 8.7463 18.5802 8.35783 21.616 10.8147L22.6116 10.8665Z" fill="#EA4335"/>
<path d="M29.7772 13.1376C29.0979 10.6359 27.7032 8.387 25.7641 6.66668L21.6161 10.8147C23.3676 12.2459 24.3654 14.4019 24.3226 16.6633V17.3997C26.3614 17.3997 28.0144 19.0525 28.0144 21.0913C28.0144 23.1302 26.3614 24.7417 24.3226 24.7417H16.9288L16.2029 25.5298V29.9577L16.9288 30.6525H24.3226C29.6258 30.6938 33.9585 26.4697 33.9998 21.1665C34.0247 17.952 32.4399 14.9385 29.7772 13.1376Z" fill="#4285F4"/>
<path d="M9.54516 30.6525H16.9286V24.7416H9.54516C9.01909 24.7415 8.50962 24.6284 8.03123 24.4098L6.98374 24.7312L4.00754 27.6867L3.74829 28.6926C5.41735 29.9529 7.45376 30.6616 9.54516 30.6525Z" fill="#34A853"/>
<path d="M9.54527 11.4784C4.24194 11.51 -0.0314351 15.8349 0.000174231 21.1381C0.0178383 24.0996 1.40095 26.8873 3.74841 28.6926L8.03135 24.4098C6.17317 23.5703 5.34747 21.3835 6.18698 19.5255C7.02635 17.6674 9.21324 16.8417 11.0712 17.6811C11.8899 18.051 12.5456 18.7068 12.9155 19.5255L17.1985 15.2427C15.3761 12.8604 12.5446 11.4676 9.54527 11.4784Z" fill="#FBBC05"/>
</svg>
