<svg width="34" height="34" viewBox="0 0 34 34" fill="none" xmlns="http://www.w3.org/2000/svg">
<rect width="34" height="34" rx="10" fill="#F5F5F5"/>
<g clip-path="url(#clip0_252_1237)">
<path d="M14.0988 25.8562C15.7674 25.8562 17.1215 24.5071 17.1215 22.8448V19.8333H14.0988C12.4303 19.8333 11.0762 21.1825 11.0762 22.8448C11.0762 24.5071 12.4303 25.8562 14.0988 25.8562Z" fill="#0ACF83"/>
<path d="M10.9802 16.8239C10.9802 15.1616 12.3344 13.8125 14.0029 13.8125H17.0256V19.8354H14.0029C12.3344 19.8354 10.9802 18.4862 10.9802 16.8239Z" fill="#A259FF"/>
<path d="M10.9807 11.1573C10.9807 9.49496 12.3349 8.14584 14.0034 8.14584H17.0261V14.1687H14.0034C12.3349 14.1687 10.9807 12.8196 10.9807 11.1573Z" fill="#F24E1E"/>
<path d="M17.0256 8.14584H20.0483C21.7168 8.14584 23.071 9.49496 23.071 11.1573C23.071 12.8196 21.7168 14.1687 20.0483 14.1687H17.0256V8.14584Z" fill="#FF7262"/>
<path d="M23.071 16.8239C23.071 18.4862 21.7168 19.8354 20.0483 19.8354C18.3798 19.8354 17.0256 18.4862 17.0256 16.8239C17.0256 15.1616 18.3798 13.8125 20.0483 13.8125C21.7168 13.8125 23.071 15.1616 23.071 16.8239Z" fill="#1ABCFE"/>
</g>
<defs>
<clipPath id="clip0_252_1237">
<rect width="12.0931" height="18.0685" fill="white" transform="translate(10.9792 8.14584)"/>
</clipPath>
</defs>
</svg>
