<svg width="34" height="28" viewBox="0 0 34 28" fill="none" xmlns="http://www.w3.org/2000/svg">
<path d="M22.6116 7.87998L25.5671 4.92451L25.764 3.68005C20.3783 -1.21714 11.8171 -0.661853 6.96215 4.83871C5.61357 6.36645 4.6131 8.27112 4.07959 10.2379L5.13811 10.0888L11.0489 9.11408L11.5053 8.64737C14.1346 5.75976 18.5802 5.37129 21.616 7.82818L22.6116 7.87998Z" fill="#EA4335"/>
<path d="M29.7772 10.151C29.0979 7.64938 27.7032 5.40047 25.7641 3.68015L21.6161 7.82814C23.3676 9.25933 24.3654 11.4154 24.3226 13.6768V14.4131C26.3614 14.4131 28.0144 16.066 28.0144 18.1048C28.0144 20.1437 26.3614 21.7551 24.3226 21.7551H16.9288L16.2029 22.5432V26.9712L16.9288 27.6659H24.3226C29.6258 27.7073 33.9585 23.4832 33.9998 18.1799C34.0247 14.9655 32.4399 11.952 29.7772 10.151Z" fill="#4285F4"/>
<path d="M9.54516 27.666H16.9286V21.755H9.54516C9.01909 21.7549 8.50962 21.6419 8.03123 21.4233L6.98374 21.7447L4.00754 24.7002L3.74829 25.7061C5.41735 26.9663 7.45376 27.675 9.54516 27.666Z" fill="#34A853"/>
<path d="M9.54527 8.49182C4.24194 8.52343 -0.0314351 12.8483 0.000174231 18.1515C0.0178383 21.113 1.40095 23.9007 3.74841 25.706L8.03135 21.4232C6.17317 20.5837 5.34747 18.397 6.18698 16.5389C7.02635 14.6809 9.21324 13.8552 11.0712 14.6946C11.8899 15.0644 12.5456 15.7203 12.9155 16.5389L17.1985 12.2561C15.3761 9.87387 12.5446 8.48106 9.54527 8.49182Z" fill="#FBBC05"/>
</svg>
