<svg width="34" height="34" viewBox="0 0 34 34" fill="none" xmlns="http://www.w3.org/2000/svg">
<path d="M0 12.3047C0 7.99769 0 5.84415 0.838209 4.19907C1.57552 2.75202 2.75202 1.57552 4.19907 0.838209C5.84415 0 7.99769 0 12.3047 0H21.6953C26.0023 0 28.1559 0 29.8009 0.838209C31.2479 1.57552 32.4245 2.75202 33.1618 4.19907C34 5.84415 34 7.99769 34 12.3047V21.6953C34 26.0023 34 28.1559 33.1618 29.8009C32.4245 31.2479 31.2479 32.4245 29.8009 33.1618C28.1559 34 26.0023 34 21.6953 34H12.3047C7.99769 34 5.84415 34 4.19907 33.1618C2.75202 32.4245 1.57552 31.2479 0.838209 29.8009C0 28.1559 0 26.0023 0 21.6953V12.3047Z" fill="#470137"/>
<path d="M17.7848 9.99823L13.5425 17.18L18.0812 24.8061C18.1756 24.979 18.0812 25.0172 17.9445 25.0172H14.7058C14.4776 25.0172 14.3179 25.009 14.2267 24.853C13.9223 24.2447 13.6183 23.6404 13.3143 23.0399C13.01 22.4397 12.6869 21.8276 12.3451 21.2035C12.0029 20.58 11.6646 19.9485 11.3301 19.3088C11.0258 19.9327 10.6873 20.5564 10.3607 21.1802C10.0336 21.8041 9.71044 22.424 9.39133 23.0399C9.07204 23.6562 8.74512 24.2683 8.4106 24.8763C8.34966 25.0166 8.24307 25.0311 8.09122 25.0311H4.96654C4.84376 25.0311 4.82895 24.9388 4.89812 24.8295L9.30009 17.4139L5.01212 9.97479C4.93424 9.86867 5.00127 9.75561 5.12619 9.76424H8.34212C8.48137 9.75646 8.60444 9.80892 8.68426 9.92804C8.95797 10.5519 9.26207 11.1758 9.59657 11.7995C9.93083 12.4234 10.2693 13.0395 10.6116 13.6475C10.9537 14.2558 11.292 14.8718 11.5809 15.4957C11.8849 14.8563 12.1928 14.2326 12.5046 13.6242C12.8162 13.016 13.1355 12.4039 13.4626 11.7878C13.7895 11.172 14.1049 10.5598 14.4091 9.95148C14.4496 9.81803 14.5462 9.75039 14.6828 9.76424H17.6707C17.7848 9.76424 17.8319 9.92003 17.7848 9.99823Z" fill="#FF61F6"/>
<path d="M24.3306 25.3209C22.3191 25.3524 20.2122 24.5241 19.1531 22.6892C18.636 21.8083 18.3775 20.705 18.3776 19.3791C18.369 18.3054 18.6365 17.2484 19.1531 16.3146C20.486 13.9319 23.1713 13.0392 25.7219 13.2735V8.66503C25.7219 8.55609 25.7675 8.50128 25.8587 8.50128H28.7326C28.8111 8.48977 28.8806 8.56105 28.8694 8.64161V22.467C28.8694 23.0374 28.926 23.6058 28.9607 24.1747C28.9663 24.2718 28.9101 24.368 28.8238 24.4087C27.4039 25.016 25.8675 25.3139 24.3306 25.3209ZM25.7219 22.4201V16.0338C23.6387 15.4551 21.6161 17.0418 21.6164 19.2387C21.567 21.51 23.5249 23.0793 25.7219 22.4201Z" fill="#FF61F6"/>
</svg>
