<svg width="34" height="34" viewBox="0 0 34 34" fill="none" xmlns="http://www.w3.org/2000/svg">
<rect width="34" height="34" rx="10" fill="#712200"/>
<path d="M16.5537 20.3772H12.2051L11.3139 23.2785C11.2871 23.379 11.1933 23.4528 11.0861 23.4461H8.88161C8.7543 23.4461 8.71409 23.379 8.7476 23.2383L12.4999 12.3969C12.5401 12.283 12.5736 12.1557 12.6138 12.0082C12.6674 11.8005 12.6875 11.5794 12.6875 11.365C12.6808 11.3047 12.721 11.2444 12.788 11.231C12.8014 11.231 12.8081 11.231 12.8215 11.231H15.8167C15.9038 11.231 15.9574 11.2645 15.9641 11.3248L20.2457 23.2517C20.2859 23.379 20.2457 23.4394 20.1318 23.4394H17.6861C17.599 23.4461 17.5186 23.3924 17.4985 23.3053L16.5537 20.3772ZM12.8617 18.3737H16.0512C15.9775 18.1258 15.7161 17.5429 15.6156 17.228C15.5151 16.913 15.3744 16.6651 15.2672 16.31C15.1533 15.9549 15.0394 15.593 14.9255 15.2379C14.8116 14.8828 14.7111 14.5343 14.6106 14.1993C14.5168 13.8643 14.4296 13.5628 14.3559 13.288H14.3358C14.2286 13.7973 14.0946 14.2998 13.9405 14.7957C13.7663 15.3585 13.5854 15.9348 13.4045 16.5244C13.2236 17.1207 13.0359 17.8779 12.8617 18.3737Z" fill="#FDA312"/>
<path d="M22.8054 13.2075C22.4168 13.2209 22.0415 13.0735 21.7668 12.7921C21.4988 12.5039 21.3581 12.1153 21.3715 11.72C21.3581 11.3246 21.5122 10.9494 21.7936 10.6747C22.075 10.4067 22.4503 10.2593 22.8389 10.2727C23.2342 10.2526 23.6229 10.4 23.9043 10.6747C24.1656 10.9561 24.3063 11.3313 24.2929 11.72C24.3063 12.1153 24.1656 12.5039 23.8909 12.7921C23.6028 13.0735 23.2074 13.2276 22.8054 13.2075ZM21.5859 23.265V14.6615C21.5859 14.5476 21.6328 14.494 21.7333 14.494H23.8708C23.9713 14.494 24.0182 14.5476 24.0182 14.6615V23.265C24.0182 23.3923 23.9713 23.4526 23.8708 23.4526H21.7534C21.6462 23.4526 21.5859 23.3923 21.5859 23.265Z" fill="#FDA312"/>
</svg>
