<svg width="34" height="34" viewBox="0 0 34 34" fill="none" xmlns="http://www.w3.org/2000/svg">
<path fill-rule="evenodd" clip-rule="evenodd" d="M32 3H2V32H32V3ZM14.1538 28.1333H11.647V18.5525H8.05274V16.5546H17.748V18.5525H14.1538V28.1333ZM28.5786 24.6829C28.5786 26.9778 26.7358 28.4303 23.7476 28.4303C20.8838 28.4303 19.0742 27.1063 18.9332 25.052L18.9248 24.9236H21.3404L21.3486 25.0038C21.44 25.8706 22.4112 26.4564 23.814 26.4564C25.1504 26.4564 26.0718 25.8385 26.0718 24.9478V24.9397C26.0718 24.1775 25.4824 23.7522 23.9966 23.4552L22.7348 23.2066C20.2446 22.7171 19.1738 21.5936 19.1738 19.8364V19.8283C19.1738 17.6779 21.083 16.2576 23.7392 16.2576C26.5366 16.2576 28.1802 17.686 28.3378 19.6197L28.3462 19.7241H25.9888L25.9722 19.6278C25.831 18.8013 25.001 18.2236 23.7392 18.2236C22.5024 18.2316 21.6806 18.7772 21.6806 19.6439V19.6518C21.6806 20.4062 22.2618 20.8555 23.6728 21.1364L24.9428 21.385C27.4746 21.8906 28.5786 22.8694 28.5786 24.675V24.6829Z" fill="#121923"/>
</svg>
