<svg width="65" height="65" viewBox="0 0 65 65" fill="none" xmlns="http://www.w3.org/2000/svg">
<path d="M11 27H4V23.5C4 21.567 5.567 20 7.5 20C9.433 20 11 21.567 11 23.5V27Z" fill="#F8A11D"/>
<path d="M62 27H55V23.5C55 21.567 56.567 20 58.5 20C60.433 20 62 21.567 62 23.5V27Z" fill="#106A61"/>
<path d="M4 27H11" stroke="#202020"/>
<path d="M55 27H62" stroke="#202020"/>
<path d="M21.4 42.0839L15.4112 36.095C14.4477 35.1316 14.4477 33.5695 15.4112 32.6061V32.6061C16.3324 31.6849 17.811 31.6387 18.7879 32.5007L25.2667 38.2172L26.7274 39.4345C27.6394 40.1945 28.1667 41.3203 28.1667 42.5074V58.5172" stroke="#202020" stroke-linecap="round"/>
<path d="M4 34.8339V36.4817C4 37.5888 4.45887 38.6465 5.26737 39.4028L17.716 51.0483C18.5245 51.8046 18.9833 52.8622 18.9833 53.9693V58.5172" stroke="#202020" stroke-linecap="round"/>
<path d="M10.7667 27.5839V31.0793C10.7667 31.6251 10.9898 32.1473 11.3842 32.5246L21.8833 42.5672" stroke="#202020" stroke-linecap="round"/>
<path d="M4 35.3172V23.7172C4 21.8486 5.51477 20.3339 7.38333 20.3339V20.3339C9.2519 20.3339 10.7667 21.8486 10.7667 23.7172V28.0672" stroke="#202020" stroke-linecap="round"/>
<path d="M44.6 42.0839L50.5888 36.095C51.5523 35.1316 51.5523 33.5695 50.5888 32.6061V32.6061C49.6676 31.6849 48.189 31.6387 47.2121 32.5007L40.7333 38.2172L39.2726 39.4345C38.3606 40.1945 37.8333 41.3203 37.8333 42.5074V58.5172" stroke="#202020" stroke-linecap="round"/>
<path d="M62 34.8339V36.4817C62 37.5888 61.5411 38.6465 60.7326 39.4028L48.284 51.0483C47.4755 51.8046 47.0167 52.8622 47.0167 53.9693V58.5172" stroke="#202020" stroke-linecap="round"/>
<path d="M55.2333 27.5839V31.0793C55.2333 31.6251 55.0102 32.1473 54.6158 32.5246L44.1167 42.5672" stroke="#202020" stroke-linecap="round"/>
<path d="M62 35.3172V23.7172C62 21.8486 60.4852 20.3339 58.6167 20.3339V20.3339C56.7481 20.3339 55.2333 21.8486 55.2333 23.7172V28.0672" stroke="#202020" stroke-linecap="round"/>
<path d="M25.2344 48.9999L25.2344 53.8333" stroke="#202020" stroke-linecap="round"/>
<path d="M40.7666 49.0004L40.7666 53.8337" stroke="#202020" stroke-linecap="round"/>
<path d="M30.5806 8.90233C31.1959 6.36589 34.8041 6.36589 35.4194 8.90233C35.5118 9.28338 35.6928 9.63724 35.9477 9.93511C36.2026 10.233 36.5243 10.4665 36.8865 10.6165C37.2487 10.7666 37.6412 10.829 38.0321 10.7987C38.423 10.7684 38.8012 10.6462 39.136 10.4421C41.3648 9.08433 43.9171 11.6352 42.5593 13.8654C42.3555 14.2001 42.2335 14.578 42.2033 14.9687C42.1731 15.3593 42.2354 15.7516 42.3853 16.1135C42.5352 16.4755 42.7684 16.7971 43.0659 17.052C43.3635 17.3069 43.717 17.488 44.0977 17.5806C46.6341 18.1959 46.6341 21.8041 44.0977 22.4194C43.7166 22.5118 43.3628 22.6928 43.0649 22.9477C42.767 23.2026 42.5335 23.5243 42.3835 23.8865C42.2334 24.2487 42.171 24.6412 42.2013 25.0321C42.2316 25.423 42.3538 25.8012 42.5579 26.136C43.9157 28.3648 41.3648 30.9171 39.1346 29.5593C38.7999 29.3555 38.422 29.2335 38.0313 29.2033C37.6407 29.1731 37.2484 29.2354 36.8865 29.3853C36.5245 29.5352 36.2029 29.7684 35.948 30.0659C35.6931 30.3635 35.512 30.717 35.4194 31.0977C34.8041 33.6341 31.1959 33.6341 30.5806 31.0977C30.4882 30.7166 30.3072 30.3628 30.0523 30.0649C29.7974 29.767 29.4757 29.5335 29.1135 29.3835C28.7513 29.2334 28.3588 29.171 27.9679 29.2013C27.577 29.2316 27.1988 29.3538 26.864 29.5579C24.6352 30.9157 22.0829 28.3648 23.4407 26.1346C23.6445 25.7999 23.7665 25.422 23.7967 25.0313C23.8269 24.6407 23.7646 24.2484 23.6147 23.8865C23.4648 23.5245 23.2316 23.2029 22.9341 22.948C22.6365 22.6931 22.283 22.512 21.9023 22.4194C19.3659 21.8041 19.3659 18.1959 21.9023 17.5806C22.2834 17.4882 22.6372 17.3072 22.9351 17.0523C23.233 16.7974 23.4665 16.4757 23.6165 16.1135C23.7666 15.7513 23.829 15.3588 23.7987 14.9679C23.7684 14.577 23.6462 14.1988 23.4421 13.864C22.0843 11.6352 24.6352 9.08289 26.8654 10.4407C28.3099 11.3189 30.1819 10.5418 30.5806 8.90233Z" stroke="#202020" stroke-linecap="round" stroke-linejoin="round"/>
<path d="M28.6663 20C28.6663 21.1493 29.1229 22.2515 29.9355 23.0642C30.7482 23.8768 31.8504 24.3334 32.9997 24.3334C34.1489 24.3334 35.2511 23.8768 36.0638 23.0642C36.8764 22.2515 37.333 21.1493 37.333 20C37.333 18.8507 36.8764 17.7485 36.0638 16.9359C35.2511 16.1232 34.1489 15.6667 32.9997 15.6667C31.8504 15.6667 30.7482 16.1232 29.9355 16.9359C29.1229 17.7485 28.6663 18.8507 28.6663 20Z" stroke="#202020" stroke-linecap="round" stroke-linejoin="round"/>
</svg>
