<svg width="65" height="65" viewBox="0 0 65 65" fill="none" xmlns="http://www.w3.org/2000/svg">
<g clip-path="url(#clip0_182_2805)">
<path d="M9 8.00042C9 5.239 11.2386 3.00043 14 3.00043H37.6C40.3614 3.00043 42.6 5.239 42.6 8.00043V12.6004H9V8.00042Z" fill="#106A61"/>
<path d="M42.6 55.32C42.6 57.0457 42.01 58.434 40.9598 59.6542C39.9096 60.8745 38.4852 61.56 37 61.56H14.6C13.1148 61.56 11.6904 60.8745 10.6402 59.6542C9.59 58.434 9 56.779 9 55.0533V9.50667C9 7.78099 9.59 6.12599 10.6402 4.90576C11.6904 3.68552 13.1148 3 14.6 3H37C38.4852 3 39.9096 3.68552 40.9598 4.90576C42.01 6.12599 42.6 7.78099 42.6 9.50667V26.6287" stroke="#202020" stroke-linecap="round" stroke-linejoin="round"/>
<path d="M23.0025 6.2522H28.6025" stroke="#202020" stroke-linecap="round" stroke-linejoin="round"/>
<line x1="9" y1="12.1004" x2="42.6" y2="12.1004" stroke="#202020"/>
<line x1="15.7197" y1="29.3804" x2="33.9597" y2="29.3804" stroke="#202020" stroke-dasharray="2 2"/>
<line x1="15.7197" y1="38.9804" x2="32.0397" y2="38.9804" stroke="#202020" stroke-dasharray="2 2"/>
<line x1="15.7197" y1="48.5804" x2="32.9997" y2="48.5804" stroke="#202020" stroke-dasharray="2 2"/>
<line x1="15.7197" y1="19.7804" x2="35.8797" y2="19.7804" stroke="#202020" stroke-dasharray="2 2"/>
<line x1="9" y1="55.3004" x2="42.6" y2="55.3004" stroke="#202020"/>
<path d="M43.9033 30.5354C44.4259 28.3814 47.4901 28.3814 48.0126 30.5354C48.091 30.859 48.2447 31.1595 48.4612 31.4125C48.6777 31.6655 48.9509 31.8637 49.2585 31.9912C49.5661 32.1186 49.8995 32.1716 50.2314 32.1459C50.5634 32.1202 50.8846 32.0164 51.1688 31.8431C53.0616 30.69 55.2291 32.8563 54.076 34.7503C53.903 35.0344 53.7994 35.3554 53.7737 35.6872C53.748 36.0189 53.801 36.352 53.9283 36.6594C54.0556 36.9668 54.2536 37.2399 54.5063 37.4564C54.759 37.6728 55.0591 37.8266 55.3824 37.9053C57.5365 38.4278 57.5365 41.492 55.3824 42.0146C55.0589 42.093 54.7583 42.2467 54.5054 42.4632C54.2524 42.6797 54.0541 42.9529 53.9267 43.2605C53.7993 43.5681 53.7463 43.9014 53.772 44.2334C53.7977 44.5653 53.9015 44.8865 54.0748 45.1708C55.2279 47.0635 53.0616 49.2311 51.1676 48.078C50.8835 47.9049 50.5625 47.8013 50.2307 47.7756C49.899 47.75 49.5659 47.8029 49.2585 47.9302C48.951 48.0575 48.678 48.2555 48.4615 48.5082C48.2451 48.7609 48.0913 49.0611 48.0126 49.3844C47.4901 51.5384 44.4259 51.5384 43.9033 49.3844C43.8249 49.0608 43.6712 48.7603 43.4547 48.5073C43.2382 48.2544 42.965 48.0561 42.6574 47.9287C42.3498 47.8012 42.0165 47.7482 41.6845 47.7739C41.3526 47.7997 41.0314 47.9034 40.7471 48.0768C38.8543 49.2298 36.6868 47.0635 37.8399 45.1696C38.013 44.8854 38.1166 44.5644 38.1422 44.2327C38.1679 43.9009 38.115 43.5678 37.9877 43.2604C37.8604 42.953 37.6623 42.68 37.4097 42.4635C37.157 42.247 36.8568 42.0932 36.5335 42.0146C34.3795 41.492 34.3795 38.4278 36.5335 37.9053C36.8571 37.8268 37.1576 37.6731 37.4106 37.4567C37.6635 37.2402 37.8618 36.967 37.9892 36.6594C38.1167 36.3518 38.1697 36.0184 38.1439 35.6865C38.1182 35.3545 38.0144 35.0333 37.8411 34.749C36.688 32.8563 38.8543 30.6888 40.7483 31.8418C41.975 32.5877 43.5647 31.9277 43.9033 30.5354Z" stroke="#202020" stroke-linecap="round" stroke-linejoin="round"/>
<path d="M42.2792 39.9602C42.2792 40.9362 42.6669 41.8723 43.3571 42.5624C44.0472 43.2525 44.9832 43.6402 45.9592 43.6402C46.9352 43.6402 47.8712 43.2525 48.5614 42.5624C49.2515 41.8723 49.6392 40.9362 49.6392 39.9602C49.6392 38.9842 49.2515 38.0482 48.5614 37.3581C47.8712 36.668 46.9352 36.2802 45.9592 36.2802C44.9832 36.2802 44.0472 36.668 43.3571 37.3581C42.6669 38.0482 42.2792 38.9842 42.2792 39.9602Z" fill="#F8A11D" stroke="#202020" stroke-linecap="round" stroke-linejoin="round"/>
</g>
<defs>
<clipPath id="clip0_182_2805">
<rect width="65" height="65" fill="white"/>
</clipPath>
</defs>
</svg>
