<svg width="60" height="60" viewBox="0 0 60 60" fill="none" xmlns="http://www.w3.org/2000/svg">
<path d="M27.3935 55.8414C26.4118 55.656 25.5062 55.1862 24.7893 54.4904C24.0723 53.7946 23.5756 52.9035 23.3609 51.9279C23.1658 51.1226 22.7832 50.3747 22.2445 49.7452C21.7057 49.1157 21.0259 48.6222 20.2604 48.3051C19.4949 47.9879 18.6654 47.856 17.8392 47.9201C17.0131 47.9841 16.2138 48.2423 15.5063 48.6737C10.796 51.5432 5.40196 46.1522 8.27148 41.4388C8.70222 40.7317 8.96002 39.9328 9.02392 39.1073C9.08782 38.2817 8.95603 37.4527 8.63924 36.6877C8.32246 35.9227 7.82964 35.2432 7.20083 34.7045C6.57201 34.1658 5.82495 33.783 5.02038 33.5874C-0.340126 32.2869 -0.340126 24.6613 5.02038 23.3609C5.82567 23.1658 6.57352 22.7832 7.20304 22.2445C7.83257 21.7057 8.32599 21.0259 8.64313 20.2604C8.96028 19.4949 9.0922 18.6654 9.02815 17.8392C8.9641 17.0131 8.70589 16.2138 8.27454 15.5063C5.40502 10.796 10.796 5.40196 15.5094 8.27148C18.5621 10.1275 22.5183 8.48517 23.3609 5.02038C24.6613 -0.340126 32.2869 -0.340126 33.5874 5.02038C33.7825 5.82567 34.165 6.57352 34.7038 7.20304C35.2425 7.83257 35.9223 8.32599 36.6878 8.64313C37.4533 8.96028 38.2829 9.0922 39.109 9.02815C39.9351 8.9641 40.7344 8.70589 41.4419 8.27453C46.1522 5.40502 51.5463 10.796 48.6767 15.5094C48.246 16.2166 47.9882 17.0154 47.9243 17.8409C47.8604 18.6665 47.9922 19.4955 48.309 20.2605C48.6258 21.0255 49.1186 21.705 49.7474 22.2438C50.3762 22.7825 51.1233 23.1652 51.9279 23.3609C54.1502 23.9012 55.4506 25.5283 55.8322 27.3385" stroke="#202020" stroke-linecap="round" stroke-linejoin="round"/>
<path d="M38 47.0003C38 49.3873 38.9482 51.6765 40.6361 53.3644C42.324 55.0523 44.6132 56.0005 47.0003 56.0005C49.3873 56.0005 51.6765 55.0523 53.3644 53.3644C55.0523 51.6765 56.0005 49.3873 56.0005 47.0003C56.0005 44.6132 55.0523 42.324 53.3644 40.6361C51.6765 38.9482 49.3873 38 47.0003 38C44.6132 38 42.324 38.9482 40.6361 40.6361C38.9482 42.324 38 44.6132 38 47.0003Z" fill="#F8A11D" stroke="#202020" stroke-linecap="round" stroke-linejoin="round"/>
<path d="M53.2343 53.6005L58.6341 59.0003" stroke="#202020" stroke-linecap="round" stroke-linejoin="round"/>
<path d="M22.3592 26.8238C21.9987 28.3684 22.2666 29.9929 23.1038 31.34C23.9411 32.6871 25.2792 33.6464 26.8238 34.0069C28.3684 34.3673 29.9929 34.0995 31.34 33.2622C32.6871 32.4249 33.6464 31.0868 34.0068 29.5422C34.3673 27.9977 34.0995 26.3731 33.2622 25.0261C32.4249 23.679 31.0868 22.7197 29.5422 22.3592C27.9976 21.9987 26.3731 22.2666 25.026 23.1039C23.679 23.9411 22.7197 25.2793 22.3592 26.8238Z" fill="#106A61" stroke="#202020" stroke-linecap="round" stroke-linejoin="round"/>
<path d="M16.2322 25.431C15.4893 28.614 16.0413 31.9617 17.7667 34.7377C19.4922 37.5137 22.2497 39.4906 25.4327 40.2335C28.6157 40.9764 31.9634 40.4244 34.7394 38.6989C37.5155 36.9735 39.4923 34.216 40.2352 31.033C40.9781 27.8499 40.4261 24.5022 38.7006 21.7262C36.9752 18.9502 34.2177 16.9733 31.0347 16.2304C27.8517 15.4876 24.5039 16.0396 21.7279 17.765C18.9519 19.4904 16.975 22.248 16.2322 25.431Z" stroke="#202020" stroke-linecap="round" stroke-linejoin="round"/>
<path d="M43 47C43 48.0609 43.4214 49.0783 44.1716 49.8284C44.9217 50.5786 45.9391 51 47 51C48.0609 51 49.0783 50.5786 49.8284 49.8284C50.5786 49.0783 51 48.0609 51 47C51 45.9391 50.5786 44.9217 49.8284 44.1716C49.0783 43.4214 48.0609 43 47 43C45.9391 43 44.9217 43.4214 44.1716 44.1716C43.4214 44.9217 43 45.9391 43 47Z" fill="#106A61" stroke="#202020" stroke-linecap="round" stroke-linejoin="round"/>
</svg>
