<svg width="34" height="34" viewBox="0 0 34 34" fill="none" xmlns="http://www.w3.org/2000/svg">
<path d="M27.9548 11.6641C27.6021 11.5427 27.2366 11.4278 26.8603 11.3192C26.9222 11.0667 26.9789 10.8176 27.0294 10.5727C27.8579 6.55096 27.3162 3.31105 25.4664 2.24433C23.6927 1.22149 20.792 2.28797 17.8623 4.83753C17.5806 5.0827 17.2981 5.34227 17.0157 5.6143C16.8276 5.43432 16.6397 5.26038 16.4524 5.09401C13.382 2.36785 10.3045 1.21901 8.45652 2.28881C6.6845 3.31462 6.15974 6.36045 6.90552 10.1718C6.97754 10.54 7.06172 10.9159 7.15692 11.2982C6.72136 11.4218 6.30087 11.5536 5.89854 11.6939C2.2989 12.9488 0 14.9157 0 16.9559C0 19.063 2.46787 21.1765 6.21717 22.458C6.51305 22.5591 6.82007 22.6547 7.13646 22.7455C7.03376 23.1589 6.94444 23.564 6.86945 23.9592C6.15835 27.7044 6.71367 30.6783 8.48097 31.6976C10.3064 32.7503 13.37 31.6683 16.3532 29.0606C16.589 28.8545 16.8256 28.6359 17.0627 28.4067C17.37 28.7026 17.6767 28.9827 17.9819 29.2453C20.8714 31.7319 23.7254 32.736 25.491 31.7138C27.3146 30.6581 27.9073 27.4634 27.1379 23.5766C27.0791 23.2798 27.0107 22.9765 26.9339 22.6679C27.1491 22.6043 27.3603 22.5386 27.5662 22.4703C31.464 21.1789 34 19.0912 34 16.9559C34 14.9083 31.627 12.9282 27.9548 11.6641ZM27.1094 21.0916C26.9235 21.1532 26.7328 21.2127 26.5384 21.2703C26.1081 19.9081 25.5273 18.4596 24.8166 16.963C25.4948 15.502 26.0531 14.072 26.4714 12.7186C26.8192 12.8193 27.1568 12.9254 27.482 13.0374C30.6283 14.1206 32.5475 15.722 32.5475 16.9559C32.5475 18.2703 30.4749 19.9765 27.1094 21.0916ZM25.713 23.8587C26.0532 25.5774 26.1018 27.1313 25.8765 28.346C25.674 29.4376 25.2667 30.1653 24.7632 30.4568C23.6917 31.077 21.4003 30.2708 18.9291 28.1443C18.6458 27.9005 18.3605 27.6402 18.0742 27.3647C19.0322 26.3169 19.9897 25.0989 20.9242 23.7461C22.5679 23.6002 24.1207 23.3618 25.529 23.0362C25.5983 23.316 25.6599 23.5904 25.713 23.8587ZM11.5914 30.3496C10.5445 30.7193 9.71072 30.7299 9.20672 30.4393C8.13425 29.8207 7.6884 27.433 8.29656 24.2301C8.36622 23.8632 8.44913 23.4864 8.54469 23.1013C9.93749 23.4093 11.479 23.6309 13.1266 23.7645C14.0673 25.0882 15.0525 26.305 16.0452 27.3704C15.8283 27.5797 15.6123 27.7791 15.3974 27.967C14.0783 29.12 12.7564 29.9381 11.5914 30.3496ZM6.68693 21.0836C5.02905 20.5169 3.65992 19.7805 2.72144 18.9768C1.87816 18.2547 1.45241 17.5377 1.45241 16.9559C1.45241 15.7179 3.29819 14.1387 6.37664 13.0654C6.75017 12.9352 7.14119 12.8124 7.54697 12.6971C7.97242 14.0811 8.53053 15.5281 9.20405 16.9912C8.52182 18.4762 7.95578 19.9462 7.52615 21.3464C7.23687 21.2632 6.9566 21.1757 6.68693 21.0836ZM8.33094 9.89291C7.69197 6.6274 8.11634 4.16401 9.1842 3.54586C10.3217 2.88735 12.8369 3.82625 15.4879 6.18016C15.6574 6.33061 15.8275 6.48808 15.9981 6.651C15.0102 7.71173 14.0341 8.91933 13.1017 10.2353C11.5026 10.3835 9.97199 10.6216 8.56467 10.9404C8.47619 10.5845 8.39781 10.2348 8.33094 9.89291ZM22.997 13.5143C22.6606 12.9332 22.3152 12.3659 21.9631 11.814C23.0479 11.9511 24.0873 12.1332 25.0633 12.3559C24.7703 13.2951 24.405 14.277 23.9751 15.2836C23.6667 14.6981 23.3405 14.1077 22.997 13.5143ZM17.0162 7.68903C17.6862 8.41484 18.3571 9.2252 19.017 10.1044C18.352 10.073 17.6788 10.0567 17 10.0567C16.3276 10.0567 15.6594 10.0727 14.9985 10.1035C15.6591 9.23246 16.3358 8.42319 17.0162 7.68903ZM10.9971 13.5244C10.6611 14.1071 10.3409 14.6943 10.0373 15.2825C9.61438 14.2794 9.25253 13.293 8.95695 12.3406C9.92702 12.1235 10.9615 11.946 12.0394 11.8114C11.6823 12.3684 11.3341 12.9401 10.9971 13.5244ZM12.0704 22.204C10.9568 22.0797 9.90675 21.9114 8.93692 21.7003C9.23722 20.7308 9.60705 19.7233 10.039 18.6986C10.3433 19.2865 10.6648 19.8739 11.0029 20.4579C11.3473 21.0528 11.7042 21.6356 12.0704 22.204ZM17.0564 26.3252C16.368 25.5824 15.6813 24.7608 15.0107 23.877C15.6617 23.9026 16.3254 23.9157 17 23.9157C17.693 23.9157 18.3781 23.9 19.0524 23.87C18.3903 24.7697 17.7218 25.5926 17.0564 26.3252ZM23.989 18.6464C24.4434 19.6822 24.8265 20.6844 25.1307 21.6373C24.1449 21.8622 23.0805 22.0434 21.9591 22.178C22.312 21.6186 22.6605 21.0415 23.0028 20.4479C23.3492 19.8473 23.678 19.2458 23.989 18.6464ZM21.7447 19.7223C21.2132 20.6438 20.6675 21.5235 20.1136 22.3539C19.1047 22.426 18.0624 22.4632 17 22.4632C15.9419 22.4632 14.9127 22.4303 13.9217 22.366C13.3454 21.5247 12.7879 20.6424 12.2598 19.7302C11.7331 18.8205 11.2485 17.903 10.8092 16.9908C11.2483 16.0764 11.7318 15.1579 12.2555 14.2498L12.2554 14.25C12.7805 13.3395 13.3331 12.4615 13.904 11.6255C14.9152 11.549 15.952 11.5091 16.9999 11.5091C18.0526 11.5091 19.0908 11.5493 20.1017 11.6264C20.6639 12.4563 21.2128 13.3315 21.7399 14.2421C22.273 15.163 22.7627 16.0753 23.2056 16.9701C22.7641 17.8803 22.2754 18.8018 21.7447 19.7223ZM24.7409 3.50265C25.8795 4.15923 26.3222 6.8072 25.6069 10.2795C25.5613 10.5011 25.5099 10.7268 25.4541 10.9555C24.0435 10.63 22.5118 10.3878 20.908 10.2373C19.9738 8.90693 19.0057 7.69744 18.0339 6.65034C18.2952 6.399 18.5561 6.15934 18.8159 5.93318C21.326 3.74873 23.672 2.88626 24.7409 3.50265ZM17 13.9198C18.6768 13.9198 20.0361 15.2791 20.0361 16.9559C20.0361 18.6327 18.6768 19.992 17 19.992C15.3232 19.992 13.9639 18.6327 13.9639 16.9559C13.9639 15.2791 15.3232 13.9198 17 13.9198Z" fill="#00D8FF"/>
</svg>
