<svg width="34" height="34" viewBox="0 0 34 34" fill="none" xmlns="http://www.w3.org/2000/svg">
<path d="M27.7794 3.00036C27.8488 2.99598 27.9146 3.03143 27.949 3.09175C27.9835 3.15207 27.9806 3.22674 27.9417 3.28425L20.9256 12.8147C20.8742 12.8727 20.8004 12.9059 20.7229 12.9059C20.6453 12.9059 20.5715 12.8727 20.5201 12.8147L18.0462 10.0569C17.9858 9.9942 17.9002 9.9623 17.8135 9.97018C17.7267 9.97807 17.6483 10.0249 17.6001 10.0975L16.0996 12.0036C16.0521 12.1109 16.0677 12.2357 16.1402 12.328L20.6012 16.9513C20.6526 17.0093 20.7264 17.0425 20.804 17.0425C20.8815 17.0425 20.9553 17.0093 21.0068 16.9513L29.7666 7.09641C29.8183 7.04083 29.8985 7.02195 29.9696 7.04861C30.0407 7.07527 30.0887 7.14219 30.0911 7.21808V31.1861C30.0944 31.2408 30.0741 31.2943 30.0354 31.3331C29.9966 31.3719 29.943 31.3922 29.8883 31.3888H3.20313C3.14839 31.3922 3.09485 31.3719 3.05607 31.3331C3.01729 31.2943 2.997 31.2408 3.00036 31.1861V3.20314C2.997 3.1484 3.01729 3.09485 3.05607 3.05607C3.09485 3.01729 3.14839 2.99701 3.20313 3.00036H27.7794ZM20.8851 19.1818C19.6777 19.1606 18.5141 19.6336 17.6641 20.4913C16.8141 21.349 16.3514 22.5168 16.3835 23.7239C16.3835 26.5222 18.4112 28.3067 21.0473 28.3067C22.2676 28.337 23.4642 27.9666 24.4539 27.2522C24.5457 27.1689 24.5629 27.0311 24.4945 26.9278L23.7645 25.8328C23.6824 25.7387 23.5428 25.7212 23.4401 25.7922C22.8056 26.2256 22.0588 26.4651 21.2906 26.4817C19.8712 26.4817 18.979 25.5895 18.8168 24.535C18.8197 24.4915 18.8544 24.4569 18.8979 24.4539H25.0217C25.1523 24.4451 25.2562 24.3412 25.265 24.2106V23.9673C25.265 21.1284 23.4806 19.1818 20.8851 19.1818ZM14.8424 17.6407C13.6106 16.6338 12.052 16.1143 10.4625 16.1807C7.70473 16.1807 6.00143 17.8029 6.00143 19.7496C6.00143 24.1701 12.7335 22.7506 12.7335 24.8189C12.7335 25.4678 12.0847 26.1167 10.7058 26.1167C9.39622 26.1275 8.13275 25.6337 7.17752 24.7378C7.12049 24.6845 7.04323 24.6584 6.96555 24.6661C6.88787 24.6739 6.81731 24.7148 6.77197 24.7784L5.71754 26.2384C5.64912 26.3417 5.66635 26.4795 5.7581 26.5628C6.85308 27.5767 8.39417 28.2661 10.5436 28.2661C13.7069 28.2661 15.248 26.6439 15.3291 24.535C15.3291 20.1551 8.59694 21.4123 8.59694 19.5468C8.59694 18.8574 9.20527 18.3707 10.2597 18.3707C11.422 18.3548 12.5541 18.7417 13.4635 19.4657C13.517 19.5095 13.5859 19.5299 13.6546 19.5222C13.7233 19.5146 13.786 19.4796 13.8285 19.4251L14.883 18.0057C14.9268 17.9522 14.9472 17.8834 14.9395 17.8147C14.9319 17.746 14.8969 17.6833 14.8424 17.6407ZM20.9256 20.9662C22.0287 20.9045 22.9809 21.731 23.0751 22.8317C23.0721 22.8753 23.0375 22.9099 22.994 22.9128H18.8573C18.8138 22.9099 18.7792 22.8753 18.7762 22.8317C18.9118 21.7526 19.8382 20.9486 20.9256 20.9662Z" fill="#2CB134"/>
</svg>
