<svg width="34" height="34" viewBox="0 0 34 34" fill="none" xmlns="http://www.w3.org/2000/svg">
<path d="M7.89025 2C8.07189 2 24.7586 2 25.0613 2C25.8969 2 26.7082 2.1332 27.4953 2.41172C28.6336 2.82344 29.6629 3.55 30.4379 4.49453C31.225 5.43906 31.7457 6.60156 31.9274 7.8125C32 8.26055 32.0121 8.70859 32.0121 9.15664C32.0121 9.56836 32.0121 24.0754 32.0121 24.7293C32.0121 25.1168 32.0121 25.5164 32.0121 25.9039C32.0121 26.4367 31.9879 26.9816 31.8789 27.5023C31.6367 28.7012 31.0676 29.8273 30.2442 30.7355C29.4328 31.6438 28.3672 32.3219 27.2168 32.6852C26.5145 32.9031 25.7879 33 25.0492 33C24.7223 33 7.84181 33 7.58751 32.9879C6.35236 32.9273 5.12931 32.5277 4.10001 31.8375C3.09493 31.1594 2.2715 30.2148 1.73868 29.125C1.27853 28.1926 1.04845 27.1512 1.04845 26.1098C1.04845 25.8676 1.04845 9.13242 1.04845 8.89023C1.02423 7.86094 1.2422 6.84375 1.69025 5.92344C2.21095 4.83359 3.02228 3.87695 4.02736 3.19883C5.05665 2.49648 6.26759 2.08477 7.50275 2.02422C7.62384 2 7.75704 2 7.89025 2Z" fill="url(#paint0_linear_252_1297)"/>
<path d="M27.1563 27.357C27.0473 27.1875 26.9262 27.018 26.793 26.8605C26.4902 26.4973 26.1391 26.1824 25.7516 25.916C25.2672 25.5891 24.698 25.3832 24.1168 25.359C23.7051 25.3348 23.2934 25.4074 22.9059 25.5527C22.5184 25.6859 22.143 25.8797 21.7797 26.0734C21.3559 26.2914 20.932 26.5094 20.484 26.691C19.9512 26.909 19.3941 27.0785 18.825 27.1996C18.1105 27.3328 17.384 27.3812 16.6695 27.3691C15.3738 27.3449 14.0781 27.1512 12.843 26.7879C11.7531 26.4609 10.7117 26.0129 9.73086 25.4437C8.87109 24.9473 8.07188 24.3781 7.32109 23.7363C6.70352 23.2035 6.13438 22.6344 5.60156 22.0289C5.23828 21.6051 4.88711 21.157 4.56016 20.6969C4.42695 20.5152 4.30586 20.3215 4.19688 20.1277L1 16.6766V8.86602C1 5.07578 4.06367 2 7.85391 2H13.9691L18.498 6.60156C28.7184 13.5523 25.4125 21.2176 25.4125 21.2176C25.4125 21.2176 28.3188 24.4871 27.1563 27.357Z" fill="url(#paint1_linear_252_1297)"/>
<path d="M18.5224 6.60156C28.7427 13.5523 25.4369 21.2176 25.4369 21.2176C25.4369 21.2176 28.3431 24.4992 27.1685 27.3691C27.1685 27.3691 25.9697 25.359 23.9595 25.359C22.022 25.359 20.8837 27.3691 16.9845 27.3691C8.3021 27.3691 4.19702 20.1156 4.19702 20.1156C12.0197 25.2621 17.3599 21.6172 17.3599 21.6172C13.8361 19.5707 6.34038 9.78633 6.34038 9.78633C12.8673 15.3445 15.6888 16.8098 15.6888 16.8098C14.0056 15.4172 9.28296 8.61172 9.28296 8.61172C13.0611 12.4383 20.5689 17.7785 20.5689 17.7785C22.7001 11.8691 18.5224 6.60156 18.5224 6.60156Z" fill="white"/>
<defs>
<linearGradient id="paint0_linear_252_1297" x1="19.4414" y1="0.893833" x2="13.5845" y2="34.11" gradientUnits="userSpaceOnUse">
<stop stop-color="#FAAE42"/>
<stop offset="1" stop-color="#EF3E31"/>
</linearGradient>
<linearGradient id="paint1_linear_252_1297" x1="16.8163" y1="2.50088" x2="12.5297" y2="26.8112" gradientUnits="userSpaceOnUse">
<stop stop-color="#E39F3A"/>
<stop offset="1" stop-color="#D33929"/>
</linearGradient>
</defs>
</svg>
