<svg width="60" height="56" viewBox="0 0 60 56" fill="none" xmlns="http://www.w3.org/2000/svg">
<path d="M21.6639 55.759H38.1951L37.6619 50.593H22.1972L21.6639 55.759Z" fill="#F8A11D"/>
<path d="M1 3.95289C1 3.16973 1.33948 2.41865 1.94377 1.86488C2.54805 1.31111 3.36764 1 4.22222 1H55.7778C56.6324 1 57.452 1.31111 58.0562 1.86488C58.6605 2.41865 59 3.16973 59 3.95289V39.3875C59 40.1707 58.6605 40.9218 58.0562 41.4755C57.452 42.0293 56.6324 42.3404 55.7778 42.3404H4.22222C3.36764 42.3404 2.54805 42.0293 1.94377 41.4755C1.33948 40.9218 1 40.1707 1 39.3875V3.95289Z" stroke="#202020" stroke-linecap="round" stroke-linejoin="round"/>
<path d="M17.1115 55.2974H42.8892" stroke="#202020" stroke-linecap="round" stroke-linejoin="round"/>
<path d="M23.5616 42.4087L21.9505 55.2976" stroke="#202020" stroke-linecap="round" stroke-linejoin="round"/>
<path d="M36.4476 42.4087L38.0587 55.2976" stroke="#202020" stroke-linecap="round" stroke-linejoin="round"/>
<line x1="22.6971" y1="50.093" x2="37.1619" y2="50.093" stroke="#202020"/>
<path d="M23 4H36.4667" stroke="#202020" stroke-linecap="round" stroke-linejoin="round"/>
<path d="M14.2472 24.7501C14.2472 24.2859 14.4316 23.8408 14.7597 23.5126C15.0879 23.1845 15.533 23.0001 15.9972 23.0001H19.4971C19.9612 23.0001 20.4064 23.1845 20.7345 23.5126C21.0627 23.8408 21.2471 24.2859 21.2471 24.7501V28.25C21.2471 28.7141 21.0627 29.1593 20.7345 29.4874C20.4064 29.8156 19.9612 30 19.4971 30H15.9972C15.533 30 15.0879 29.8156 14.7597 29.4874C14.4316 29.1593 14.2472 28.7141 14.2472 28.25V24.7501Z" stroke="#202020" stroke-linecap="round" stroke-linejoin="round"/>
<path d="M38.75 24.7501C38.75 24.2859 38.9344 23.8408 39.2626 23.5126C39.5907 23.1845 40.0359 23.0001 40.5 23.0001H43.9999C44.464 23.0001 44.9092 23.1845 45.2373 23.5126C45.5655 23.8408 45.7499 24.2859 45.7499 24.7501V28.25C45.7499 28.7141 45.5655 29.1593 45.2373 29.4874C44.9092 29.8156 44.464 30 43.9999 30H40.5C40.0359 30 39.5907 29.8156 39.2626 29.4874C38.9344 29.1593 38.75 28.7141 38.75 28.25V24.7501Z" stroke="#202020" stroke-linecap="round" stroke-linejoin="round"/>
<path d="M26.4977 10.75C26.4977 10.2859 26.6821 9.84074 27.0102 9.51256C27.3384 9.18437 27.7835 9 28.2477 9H31.7476C32.2117 9 32.6568 9.18437 32.985 9.51256C33.3132 9.84074 33.4976 10.2859 33.4976 10.75V14.2499C33.4976 14.714 33.3132 15.1592 32.985 15.4873C32.6568 15.8155 32.2117 15.9999 31.7476 15.9999H28.2477C27.7835 15.9999 27.3384 15.8155 27.0102 15.4873C26.6821 15.1592 26.4977 14.714 26.4977 14.2499V10.75Z" fill="#106A61" stroke="#202020" stroke-linecap="round" stroke-linejoin="round"/>
<path d="M26.5021 13.3754C24.1742 13.763 22.0447 14.9235 20.4572 16.6697C18.8697 18.4159 17.9168 20.6461 17.7522 23.0003" stroke="#202020" stroke-linecap="round" stroke-linejoin="round"/>
<path d="M33.5055 13.3754C35.8334 13.763 37.9629 14.9235 39.5504 16.6697C41.1378 18.4159 42.0907 20.6461 42.2554 23.0003" stroke="#202020" stroke-linecap="round" stroke-linejoin="round"/>
<path d="M26.4986 12.5003H15.9988" stroke="#202020" stroke-linecap="round" stroke-linejoin="round"/>
<path d="M44.0053 12.5003H33.5055" stroke="#202020" stroke-linecap="round" stroke-linejoin="round"/>
<path d="M12.501 12.4995C12.501 12.9637 12.6853 13.4088 13.0135 13.737C13.3417 14.0651 13.7868 14.2495 14.251 14.2495C14.7151 14.2495 15.1602 14.0651 15.4884 13.737C15.8166 13.4088 16.0009 12.9637 16.0009 12.4995C16.0009 12.0354 15.8166 11.5903 15.4884 11.2621C15.1602 10.9339 14.7151 10.7496 14.251 10.7496C13.7868 10.7496 13.3417 10.9339 13.0135 11.2621C12.6853 11.5903 12.501 12.0354 12.501 12.4995Z" stroke="#202020" stroke-linecap="round" stroke-linejoin="round"/>
<path d="M43.999 12.4995C43.999 12.9637 44.1833 13.4088 44.5115 13.737C44.8397 14.0651 45.2848 14.2495 45.7489 14.2495C46.2131 14.2495 46.6582 14.0651 46.9864 13.737C47.3145 13.4088 47.4989 12.9637 47.4989 12.4995C47.4989 12.0354 47.3145 11.5903 46.9864 11.2621C46.6582 10.9339 46.2131 10.7496 45.7489 10.7496C45.2848 10.7496 44.8397 10.9339 44.5115 11.2621C44.1833 11.5903 43.999 12.0354 43.999 12.4995Z" stroke="#202020" stroke-linecap="round" stroke-linejoin="round"/>
</svg>
