<svg width="65" height="65" viewBox="0 0 65 65" fill="none" xmlns="http://www.w3.org/2000/svg">
<g clip-path="url(#clip0_452_1594)">
<path d="M4 41H62V44C62 45.1046 61.1046 46 60 46H6C4.89543 46 4 45.1046 4 44V41Z" fill="#106A61"/>
<path d="M24.6641 59.7597H41.1952L40.662 54.5938H25.1973L24.6641 59.7597Z" fill="#F8A11D"/>
<path d="M4 7.95289C4 7.16973 4.33948 6.41865 4.94377 5.86488C5.54805 5.31111 6.36764 5 7.22222 5H58.7778C59.6324 5 60.452 5.31111 61.0562 5.86488C61.6605 6.41865 62 7.16973 62 7.95289V43.3875C62 44.1707 61.6605 44.9218 61.0562 45.4755C60.452 46.0293 59.6324 46.3404 58.7778 46.3404H7.22222C6.36764 46.3404 5.54805 46.0293 4.94377 45.4755C4.33948 44.9218 4 44.1707 4 43.3875V7.95289Z" stroke="#202020" stroke-linecap="round" stroke-linejoin="round"/>
<path d="M20.1113 59.2969H45.8891" stroke="#202020" stroke-linecap="round" stroke-linejoin="round"/>
<path d="M26.5616 46.4082L24.9504 59.2971" stroke="#202020" stroke-linecap="round" stroke-linejoin="round"/>
<path d="M39.4475 46.4082L41.0586 59.2971" stroke="#202020" stroke-linecap="round" stroke-linejoin="round"/>
<line x1="25.6973" y1="54.0938" x2="40.162" y2="54.0938" stroke="#202020"/>
<line x1="4" y1="40.5" x2="62" y2="40.5" stroke="#202020"/>
<path d="M26 8H39.4667" stroke="#202020" stroke-linecap="round" stroke-linejoin="round"/>
<path d="M26.25 29.5L19.5 24.25L26.25 19" stroke="#202020" stroke-linecap="round" stroke-linejoin="round"/>
<path d="M39.75 19L46.5 24.25L39.75 29.5" stroke="#202020" stroke-linecap="round" stroke-linejoin="round"/>
<path d="M30.5 34L35.5 15" stroke="#202020" stroke-linecap="round" stroke-linejoin="round"/>
</g>
<defs>
<clipPath id="clip0_452_1594">
<rect width="65" height="65" fill="white"/>
</clipPath>
</defs>
</svg>
